<svg id="logo-seeing-machines" xmlns="http://www.w3.org/2000/svg" width="230" height="43.37" viewBox="0 0 230 43.37">
  <path id="machines" d="M414.133,58.58V57.489a2.781,2.781,0,0,0-2.625-2.761l-4.977-.392a1.188,1.188,0,0,1-1.149-1.123v-.9a1.169,1.169,0,0,1,.094-.514,3.659,3.659,0,0,1,1.3-1.353,1.032,1.032,0,0,1,.543-.122h3.2a.943.943,0,0,1,.516.122,4.452,4.452,0,0,1,1.445,1.547l1.571-.546a3.775,3.775,0,0,0-.422-.668,8.86,8.86,0,0,0-1.346-1.457,3.247,3.247,0,0,0-1.84-.573h-3.141a3.246,3.246,0,0,0-1.84.573,7.387,7.387,0,0,0-1.239,1.353,2.88,2.88,0,0,0-.449,1.61v.9a2.782,2.782,0,0,0,2.612,2.774l4.982.365a1.183,1.183,0,0,1,1.144,1.123V58.54a1.241,1.241,0,0,1-.09.514,3.82,3.82,0,0,1-1.346,1.353.894.894,0,0,1-.512.122H406.9a1,1,0,0,1-.543-.122,4.367,4.367,0,0,1-1.4-1.552L403.4,59.4a6.912,6.912,0,0,0,.422.695,8.1,8.1,0,0,0,1.346,1.425,3.215,3.215,0,0,0,1.84.577h3.622a3.229,3.229,0,0,0,1.84-.577,7.055,7.055,0,0,0,1.234-1.353,2.816,2.816,0,0,0,.449-1.606m-21.923-6.622a4.54,4.54,0,0,1,1.45-1.489.916.916,0,0,1,.512-.122h2.989a1.041,1.041,0,0,1,.543.122,4.527,4.527,0,0,1,1.445,1.489,1.219,1.219,0,0,1,.063.514v2.125h-7.091V52.455a1.241,1.241,0,0,1,.09-.514m7.032,6.974a4.605,4.605,0,0,1-1.391,1.484.988.988,0,0,1-.543.122h-3.168a.894.894,0,0,1-.512-.122,4.5,4.5,0,0,1-1.418-1.484,1.241,1.241,0,0,1-.09-.514V56.145h8.72V52.4a2.862,2.862,0,0,0-.422-1.61,8.864,8.864,0,0,0-1.346-1.457,3.274,3.274,0,0,0-1.885-.586h-3.011a3.282,3.282,0,0,0-1.871.573,8.634,8.634,0,0,0-1.346,1.457,2.843,2.843,0,0,0-.449,1.61v6.076a2.843,2.843,0,0,0,.449,1.61,8.609,8.609,0,0,0,1.346,1.452,3.255,3.255,0,0,0,1.871.577h3.079a3.153,3.153,0,0,0,1.84-.577,8.84,8.84,0,0,0,1.346-1.452,6.919,6.919,0,0,0,.422-.668l-1.6-.546ZM387.4,61.946V52.4a2.826,2.826,0,0,0-.422-1.61,8.635,8.635,0,0,0-1.346-1.457,3.282,3.282,0,0,0-1.88-.586h-2.244a2.892,2.892,0,0,0-1.508.636,8.169,8.169,0,0,0-1.117,1.033l-.184-1.52H377.05l.211,2.156v10.9h1.629v-9.7a6.891,6.891,0,0,1,2.266-1.8.92.92,0,0,1,.422-.095h2.141a1.032,1.032,0,0,1,.543.122,4.54,4.54,0,0,1,1.45,1.489,1.3,1.3,0,0,1,.058.514v9.473ZM374.577,43.6h-2.293v2.332h2.293Zm-.332,5.3h-1.629V61.946h1.629Zm-5.278,13.041V52.4a2.88,2.88,0,0,0-.449-1.61,8.862,8.862,0,0,0-1.346-1.457,3.247,3.247,0,0,0-1.84-.573H363.16a2.91,2.91,0,0,0-1.508.636,9.112,9.112,0,0,0-1.176,1.092V43.749h-1.647v18.2h1.629V52.4c.027-.032.027-.095.058-.122a6.736,6.736,0,0,1,2.244-1.849,1.072,1.072,0,0,1,.449-.095h2.051a1.032,1.032,0,0,1,.543.122,4.411,4.411,0,0,1,1.418,1.489,1.169,1.169,0,0,1,.094.514v9.473ZM356.173,59.4l-1.571-.546-.027.059a4.415,4.415,0,0,1-1.418,1.484,1,1,0,0,1-.543.122h-3.142a1,1,0,0,1-.543-.122,4.393,4.393,0,0,1-1.387-1.484,1.242,1.242,0,0,1-.09-.514V52.455a1.242,1.242,0,0,1,.09-.514,4.452,4.452,0,0,1,1.418-1.489,1.041,1.041,0,0,1,.543-.122h3.016a1.032,1.032,0,0,1,.543.122A4.465,4.465,0,0,1,354.512,52l1.571-.514a7.915,7.915,0,0,0-1.8-2.156,3.175,3.175,0,0,0-1.831-.586h-2.989a3.26,3.26,0,0,0-1.867.573,8.671,8.671,0,0,0-1.346,1.457,2.862,2.862,0,0,0-.422,1.61v6.076a2.862,2.862,0,0,0,.422,1.61,8.651,8.651,0,0,0,1.346,1.452,3.229,3.229,0,0,0,1.867.577h3.079a3.13,3.13,0,0,0,1.84-.577,6.843,6.843,0,0,0,1.8-2.12M338.71,60.43a.92.92,0,0,1-.422.09h-2.536a1,1,0,0,1-.543-.122,4.167,4.167,0,0,1-1.387-1.425,1.073,1.073,0,0,1-.09-.483v-.609a1.087,1.087,0,0,1,.09-.483A4.347,4.347,0,0,1,335.2,55.96a1.041,1.041,0,0,1,.543-.122h5.219V58.6a6.928,6.928,0,0,1-2.244,1.849m4.2,1.516-.332-2.17V52.4a2.717,2.717,0,0,0-.426-1.642,6.693,6.693,0,0,0-1.346-1.425,3.211,3.211,0,0,0-1.867-.586h-2.778a2.978,2.978,0,0,0-1.8.546,8.7,8.7,0,0,0-1.346,1.452,5.77,5.77,0,0,0-.449.7l1.566.514a5.371,5.371,0,0,1,1.45-1.516.926.926,0,0,1,.512-.122h2.836a1.032,1.032,0,0,1,.543.122,4.5,4.5,0,0,1,1.45,1.489,1.512,1.512,0,0,1,.058.483v1.849h-5.273a3.072,3.072,0,0,0-1.84.577,11.015,11.015,0,0,0-1.346,1.425,2.767,2.767,0,0,0-.449,1.606v.609a2.839,2.839,0,0,0,.449,1.606,11.016,11.016,0,0,0,1.346,1.425,3.072,3.072,0,0,0,1.84.577h2.652a2.686,2.686,0,0,0,1.481-.636,8.256,8.256,0,0,0,1.144-1.033l.274,1.516ZM318.035,50.33a1,1,0,0,1,.543.095,4.632,4.632,0,0,1,1.45,1.516,1.242,1.242,0,0,1,.09.514v9.473h1.6V52.211a7.528,7.528,0,0,1,2.244-1.8,1.055,1.055,0,0,1,.449-.095h1.3a1,1,0,0,1,.543.095,4.543,4.543,0,0,1,1.418,1.516,1.242,1.242,0,0,1,.09.514v9.473h1.629V52.4a2.863,2.863,0,0,0-.422-1.61,8.86,8.86,0,0,0-1.346-1.457,3.349,3.349,0,0,0-1.894-.586h-1.418a2.909,2.909,0,0,0-1.508.636,10.9,10.9,0,0,0-1.477,1.457l-.031-.063a8.674,8.674,0,0,0-1.346-1.457,3.336,3.336,0,0,0-1.88-.573h-1.512a2.811,2.811,0,0,0-1.476.636,9.224,9.224,0,0,0-1.149,1.06l-.18-1.547H312.12l.18,2.156v10.9h1.629v-9.7a6.891,6.891,0,0,1,2.266-1.8.92.92,0,0,1,.422-.095Z" transform="translate(-184.152 -33.666)" fill="#fff"/>
  <path id="seeing" d="M202.639,59.466a.478.478,0,0,1-.179-.027,3.463,3.463,0,0,1-1.01-.988.517.517,0,0,1-.031-.18v-5.2a.407.407,0,0,1,.031-.153,3.518,3.518,0,0,1,1-1,.447.447,0,0,1,.18-.059h2.2c.449,0,1.45.97,1.871,1.425v4.79a6.649,6.649,0,0,1-1.661,1.353.746.746,0,0,1-.211.027ZM210,49.127h-2.957l-.121.668a3.437,3.437,0,0,0-1.993-.816h-2.325a4.073,4.073,0,0,0-2.2.668,8.289,8.289,0,0,0-1.45,1.489,3.088,3.088,0,0,0-.543,1.877v5.3a3.11,3.11,0,0,0,.543,1.881,8.276,8.276,0,0,0,1.45,1.484,4.073,4.073,0,0,0,2.2.668h2.325a3.32,3.32,0,0,0,1.8-.726v1.849c-.031.244-.723.789-1,.938a.411.411,0,0,1-.18.063h-2.715c-.305,0-.938-.609-1.117-.821a.4.4,0,0,1-.09-.122l-2.809.853a7.509,7.509,0,0,0,1.934,2.255,4.186,4.186,0,0,0,2.172.731h2.652a4.078,4.078,0,0,0,2.2-.668,8.211,8.211,0,0,0,1.436-1.484,3.17,3.17,0,0,0,.512-1.913V51.856ZM195.127,62.209V52.948a3.07,3.07,0,0,0-.543-1.849,8.211,8.211,0,0,0-1.45-1.457,4,4,0,0,0-2.2-.668h-2.244a3.5,3.5,0,0,0-1.9.848l-.153-.695h-2.957l.3,2.706V62.227H187V53.1c.39-.451,1.207-1.245,1.8-1.245h2.114c.09,0,.211,0,.242.032a3.047,3.047,0,0,1,.933.938.453.453,0,0,1,.031.18v9.22ZM180.555,49.127h-3.016V62.209h3.016Zm.09-5.1h-3.227v3.248h3.227Zm-9.474,10.4H166V53.007a.5.5,0,0,1,.031-.18,2.233,2.233,0,0,1,1.176-.97h2.747a.353.353,0,0,1,.18.032,3.288,3.288,0,0,1,1,.938c.031.032.031.18.031.18Zm3.016,2.706V52.948a3.069,3.069,0,0,0-.561-1.849,8.175,8.175,0,0,0-1.445-1.457,4.024,4.024,0,0,0-2.186-.663h-2.778a4.024,4.024,0,0,0-2.2.668,9.575,9.575,0,0,0-1.445,1.457,3.1,3.1,0,0,0-.574,1.849v5.454a3.2,3.2,0,0,0,.574,1.881,9.574,9.574,0,0,0,1.445,1.457,3.992,3.992,0,0,0,2.2.636h2.818a4.155,4.155,0,0,0,2.172-.7,7.509,7.509,0,0,0,1.934-2.255l-2.809-.853a.791.791,0,0,1-.09.122c-.18.212-.812.789-1.117.789H167.2c-.3,0-.9-.514-1.176-.97a.349.349,0,0,1-.031-.153V57.134ZM156.9,54.432h-5.161V53.007a.5.5,0,0,1,.031-.18c.274-.451.875-.97,1.176-.97h2.729a.362.362,0,0,1,.18.032,3.288,3.288,0,0,1,1,.938c.031.032.031.18.031.18Zm3.016,2.706V52.948a3.07,3.07,0,0,0-.543-1.849,8.327,8.327,0,0,0-1.454-1.457,4.024,4.024,0,0,0-2.195-.663h-2.778a4.024,4.024,0,0,0-2.208.663,9.373,9.373,0,0,0-1.445,1.457,3.1,3.1,0,0,0-.574,1.849v5.458a3.2,3.2,0,0,0,.574,1.881,9.372,9.372,0,0,0,1.445,1.457,3.993,3.993,0,0,0,2.2.636h2.836a4.155,4.155,0,0,0,2.172-.7,7.509,7.509,0,0,0,1.934-2.255l-2.809-.853a.792.792,0,0,1-.09.122c-.179.212-.812.789-1.117.789h-2.926c-.3,0-.9-.514-1.176-.97a.349.349,0,0,1-.031-.153V57.134Zm-22.78,1.547-.09-.122-2.8.848a6.437,6.437,0,0,0,1.93,2.255,4.249,4.249,0,0,0,2.172.726h3.442a3.806,3.806,0,0,0,2.141-.668,6.584,6.584,0,0,0,1.346-1.394,3.137,3.137,0,0,0,.57-1.849v-.866a3,3,0,0,0-2.984-3.121c-1.638-.18-3.954-.365-4.739-.451a.517.517,0,0,1-.449-.392v-.735a.792.792,0,0,1,.031-.3,2.133,2.133,0,0,1,.7-.7,1.228,1.228,0,0,1,.39-.059h2.895c.305,0,.938.577,1.117.789a.4.4,0,0,1,.09.122l2.836-.853a6.45,6.45,0,0,0-1.961-2.255,4.154,4.154,0,0,0-2.163-.681h-2.895a4.211,4.211,0,0,0-3.5,2.034,3.106,3.106,0,0,0-.543,1.849v.9a2.9,2.9,0,0,0,.754,2.162,2.87,2.87,0,0,0,2.082.932c1.719.153,3.891.3,4.937.4a.389.389,0,0,1,.288.126.394.394,0,0,1,.1.3v.726a1.525,1.525,0,0,1-1.064,1.092h-3.5a3.017,3.017,0,0,1-1.117-.816" transform="translate(-86.102 -33.902)" fill="#fff"/>
  <path id="Path_3" data-name="Path 3" d="M91.454,43.476a4.979,4.979,0,0,0-.929-2.707L71.47,49.341v8.977l9.99-4.511v8.981h0l9.061,4.06a5.019,5.019,0,0,0,.929-2.706Z" transform="translate(-51.503 -32.112)" fill="#76cedb"/>
  <path id="Path_4" data-name="Path 4" d="M36.974,44.82h0l-9.061-4.06a4.978,4.978,0,0,0-.933,2.706v20.66a4.978,4.978,0,0,0,.933,2.706l9.061-4.06V53.8l9.99,4.511v-9Z" transform="translate(-26.98 -32.107)" fill="#23a5b9"/>
  <path id="Path_5" data-name="Path 5" d="M48.111,29.8l9.994,4.488,9.061-4.06a4.944,4.944,0,0,0-1.939-1.7L50.97,22.106a7.251,7.251,0,0,0-2.859-.528,7.34,7.34,0,0,0-2.854.523l-7.136,3.207h0l-7.127,3.225a4.85,4.85,0,0,0-1.934,1.705l9.061,4.06,9.99-4.488" transform="translate(-28.127 -21.577)" fill="#aee0ea"/>
  <path id="Path_6" data-name="Path 6" d="M58.105,89.57l-9.994,4.511-9.99-4.511h0L29.06,93.63a4.841,4.841,0,0,0,1.934,1.705l14.262,6.41a8.04,8.04,0,0,0,5.713,0l14.258-6.405a4.944,4.944,0,0,0,1.952-1.7Z" transform="translate(-28.127 -58.9)" fill="#aee0ea"/>
</svg>
